<?xml version="1.0" encoding="UTF-8" standalone="no"?>
<!-- Created with Inkscape (http://www.inkscape.org/) -->

<svg
   xmlns:dc="http://purl.org/dc/elements/1.1/"
   xmlns:cc="http://creativecommons.org/ns#"
   xmlns:rdf="http://www.w3.org/1999/02/22-rdf-syntax-ns#"
   xmlns:svg="http://www.w3.org/2000/svg"
   xmlns="http://www.w3.org/2000/svg"
   xmlns:sodipodi="http://sodipodi.sourceforge.net/DTD/sodipodi-0.dtd"
   xmlns:inkscape="http://www.inkscape.org/namespaces/inkscape"
   version="1.1"
   id="svg2"
   width="624"
   height="114"
   viewBox="0 0 624 114"
   sodipodi:docname="logo.svg"
   inkscape:version="0.92.3 (2405546, 2018-03-11)">
  <metadata
     id="metadata8">
    <rdf:RDF>
      <cc:Work
         rdf:about="">
        <dc:format>image/svg+xml</dc:format>
        <dc:type
           rdf:resource="http://purl.org/dc/dcmitype/StillImage" />
        <dc:title></dc:title>
      </cc:Work>
    </rdf:RDF>
  </metadata>
  <defs
     id="defs6" />
  <sodipodi:namedview
     pagecolor="#ffffff"
     bordercolor="#666666"
     borderopacity="1"
     objecttolerance="10"
     gridtolerance="10"
     guidetolerance="10"
     inkscape:pageopacity="0"
     inkscape:pageshadow="2"
     inkscape:window-width="1600"
     inkscape:window-height="837"
     id="namedview4"
     showgrid="false"
     showborder="true"
     inkscape:pagecheckerboard="true"
     inkscape:zoom="0.57852564"
     inkscape:cx="52.720222"
     inkscape:cy="57"
     inkscape:window-x="-8"
     inkscape:window-y="-8"
     inkscape:window-maximized="1"
     inkscape:current-layer="svg2" />
  <g
     id="g12">
    <path
       style="fill:#f3c655"
       d="M 27.20573,101.74789 C 26.474313,100.86659 26.879197,96.942659 28.572909,88.497889 31.799925,72.408142 32.008649,72 37.009946,72 c 2.852794,0 4.241341,0.491268 4.689497,1.659143 0.866319,2.257593 -4.422065,27.546087 -5.965515,28.526457 -1.931905,1.22712 -7.378519,0.94757 -8.528198,-0.43771 z m 15.949993,0.36951 c -1.048755,-0.66467 0.270271,-4.013829 6,-15.234684 L 56.5,72.5 l 4,-0.260911 c 2.2,-0.143502 4.571844,0.113831 5.270764,0.571849 0.69892,0.458019 2.48824,7.010943 3.976267,14.562054 2.349802,11.924257 2.511413,13.852028 1.229236,14.662838 C 68.492191,103.60668 64.40725,103.10749 62.5,101 c -1.0894,-1.203773 -3.079967,-2 -5,-2 -1.920033,0 -3.9106,0.796227 -5,2 -1.87641,2.07341 -6.889898,2.67293 -9.344277,1.1174 z M 59.968197,89.25 C 59.938063,86.644365 59.861,86.599603 58.50023,88.397322 57.053881,90.308099 57.316301,92 59.059017,92 c 0.517541,0 0.926671,-1.2375 0.90918,-2.75 z m 21.369933,12.18877 c -0.560794,-1.461406 -0.03487,-8.125804 1.311327,-16.616738 0.567698,-3.580676 0.494075,-3.686487 -2.783167,-4 -2.945259,-0.281755 -3.403945,-0.707903 -3.667355,-3.407207 -0.480278,-4.921657 1.165715,-5.513993 14.442894,-5.197496 L 102.5,72.5 l 0.32226,2.810472 C 103.23873,78.942566 101.47197,81 97.936572,81 c -1.550196,0 -3.058108,0.387632 -3.350915,0.861404 -0.292807,0.473772 -1.210518,5.054247 -2.039359,10.178833 -0.82884,5.124587 -2.078328,9.680063 -2.77664,10.123283 -2.246716,1.42599 -7.789022,0.94959 -8.431528,-0.72475 z m 19.06679,0.17406 c -0.570232,-1.48601 12.08342,-27.619017 13.96802,-28.847517 1.83894,-1.198734 8.30015,-0.865703 9.4035,0.484687 0.56174,0.6875 2.2315,7.273931 3.71058,14.636513 2.20194,10.960812 2.44677,13.540207 1.35111,14.234687 -2.38805,1.51366 -6.80938,0.93524 -8.57016,-1.1212 -0.97409,-1.13765 -2.94994,-2 -4.58248,-2 -1.57852,0 -4.0142,0.9 -5.41262,2 -2.93459,2.30835 -9.07108,2.68944 -9.86795,0.61283 z M 118,88.940983 C 118,87.873442 117.59814,87 117.10699,87 c -1.17436,0 -2.27181,2.924296 -1.54114,4.106554 C 116.43795,92.517639 118,91.127942 118,88.940983 Z M 443.38,86.547887 C 442.54974,84.38427 443.80783,83 446.60447,83 450.00757,83 454,78.791823 454,75.204829 c 0,-1.587344 -2.925,-9.537386 -6.5,-17.66676 -3.575,-8.129374 -6.5,-15.352947 -6.5,-16.052385 0,-2.021558 3.08709,-2.66155 5.3909,-1.117601 1.26966,0.850888 3.83679,5.835008 6.44995,12.522685 C 455.22831,59.000846 457.55142,64 458.00331,64 c 0.72324,0 3.78003,-7.30898 8.08831,-19.339685 1.44493,-4.034912 4.09414,-6.186745 6.48652,-5.268703 0.78202,0.30009 1.42186,1.148705 1.42186,1.885812 0,1.442351 -14.11958,37.119349 -16.55192,41.822983 -0.80783,1.562167 -2.33454,3.303644 -3.39269,3.869949 -2.93938,1.573111 -10.01709,1.293017 -10.67539,-0.422469 z M 230.6838,75.551188 c -4.98311,-1.777201 -7.55201,-4.149066 -9.80307,-9.051188 -3.75342,-8.173793 -1.50923,-19.269033 5.00641,-24.751579 8.13074,-6.841572 21.957,-3.918674 26.47213,5.596262 1.8728,3.946628 2.19236,14.061969 0.5794,18.340217 -1.57846,4.186719 -6.87351,9.202294 -10.89431,10.3193 -4.61722,1.282694 -6.73002,1.198444 -11.36056,-0.453012 z m 12.81697,-8.146522 c 4.36417,-4.709019 4.18417,-16.664857 -0.31217,-20.733985 -4.67954,-4.234928 -12.78101,-2.483127 -15.1681,3.279839 -1.99075,4.806081 -0.90605,14.477955 1.96663,17.535784 3.37779,3.595488 10.14368,3.554614 13.51364,-0.08164 z m 297.59289,8.280055 c -6.42445,-2.234421 -7.54904,-5.106589 -7.94246,-20.284897 -0.37277,-14.381618 0.25565,-16.770396 4.26129,-16.198081 1.97095,0.281603 2.11543,1.05763 2.58751,13.897965 0.34674,9.430995 0.92069,14.105571 1.87244,15.25 2.22703,2.677884 7.61787,2.077247 11.36178,-1.265907 L 556.5,64.167603 557,51.844299 c 0.45345,-11.175883 0.68007,-12.357684 2.4339,-12.692542 3.78607,-0.72287 4.5661,2.344829 4.5661,17.957585 0,8.099896 -0.27314,15.438887 -0.60699,16.308871 -0.72064,1.87797 -6.03374,2.159587 -6.63635,0.351755 -0.30985,-0.929527 -1.36851,-0.821528 -4.33334,0.442064 -5.96952,2.544172 -7.62878,2.759851 -11.32966,1.472689 z m -379.05848,-1.61898 c -1.09927,-2.054019 -1.4666,-30.777912 -0.42819,-33.483954 0.80041,-2.085837 5.98556,-2.085978 6.78595,-1.84e-4 0.53448,1.392839 1.0089,1.333164 3.97502,-0.5 4.46331,-2.758474 9.50878,-2.654473 13.84077,0.285298 l 3.48782,2.366901 3.90173,-2.421073 c 3.10526,-1.926859 4.88837,-2.336277 8.73517,-2.005675 8.68034,0.746008 10.60276,4.902129 10.64269,23.008687 C 213.00106,72.613321 212.12204,76 209.16482,76 205.53926,76 205,73.993044 205,60.5 c 0,-8.855556 -0.3888,-13.488804 -1.2,-14.3 -2.09982,-2.099816 -7.66609,-1.42482 -10.34545,1.254545 C 191.12477,49.784321 191,50.511223 191,61.754545 191,73.949083 190.40039,76 186.83518,76 183.81377,76 183,72.555343 183,59.765741 c 0,-13.540996 -0.46051,-14.785965 -5.45,-14.733938 -6.72088,0.07008 -8.55,3.857207 -8.55,17.702456 0,7.117798 -0.41392,11.279659 -1.2,12.065741 -1.80186,1.801862 -4.59814,1.445703 -5.76482,-0.734259 z M 271.83353,74.75 c -1.70519,-1.376285 -13.84189,-31.198897 -13.83675,-34 0.002,-1.274046 0.81287,-1.75 2.98017,-1.75 3.79013,0 4.91911,1.737327 9.58509,14.75 2.02146,5.6375 4.03962,10.25 4.48482,10.25 0.75785,0 1.68972,-2.202722 7.08615,-16.75 2.72634,-7.349467 3.48927,-8.25 6.98943,-8.25 2.15085,0 2.87756,0.475333 2.87756,1.882187 0,2.699939 -12.70594,33.313905 -14.22723,34.279412 -1.85375,1.1765 -4.17054,1.015943 -5.93924,-0.411599 z m 29.55459,0.269931 C 297.92161,73.619304 295,69.076768 295,65.087648 c 0,-6.982954 4.82457,-10.702462 15.22492,-11.73766 3.45129,-0.343524 6.84774,-1.076336 7.54766,-1.628472 1.52592,-1.203732 0.67864,-4.708067 -1.56468,-6.471516 -2.60309,-2.046253 -9.89386,-1.564045 -12.26939,0.811493 -2.16793,2.167924 -6.00075,2.29231 -6.68405,0.216916 -0.65939,-2.002815 4.21187,-6.057618 8.74321,-7.277782 5.70124,-1.535183 11.53744,-0.387283 15.35419,3.019955 l 3.14814,2.810368 0.32382,14.587581 c 0.28394,12.790608 0.12165,14.665165 -1.31746,15.217401 -0.9027,0.346401 -2.63204,0.09958 -3.84297,-0.548486 -1.7502,-0.936683 -2.96015,-0.8614 -5.90042,0.367124 -4.02359,1.681165 -9.04544,1.910595 -12.37485,0.565361 z m 13.54883,-6.875905 c 2.68083,-1.942428 4.56884,-6.383563 3.68876,-8.677015 -0.76958,-2.005516 -9.79576,-1.947554 -13.73244,0.08818 -2.63024,1.360148 -2.96891,2.015699 -2.70034,5.227007 0.51109,6.111376 6.69706,7.743212 12.74402,3.361824 z m 28.83348,6.294704 c -2.15102,-1.167246 -3.12974,-1.231287 -4.61753,-0.302142 -1.03838,0.648479 -2.63075,0.894022 -3.53859,0.54565 -1.48075,-0.568217 -1.62303,-3.080098 -1.38247,-24.40782 L 334.5,26.5 h 2.5 c 2.38217,0 2.5129,0.306347 2.7738,6.5 0.39063,9.273401 0.38073,9.261533 5.74816,6.88726 7.72711,-3.418066 15.30617,-0.8714 19.19875,6.451036 2.53099,4.761112 2.36677,17.114911 -0.28793,21.66039 -4.24539,7.269098 -13.70261,10.216729 -20.66235,6.440044 z m 12.03917,-5.694668 c 3.98478,-3.304414 5.38062,-12.959704 2.77506,-19.195689 -2.62729,-6.287988 -9.3832,-7.487185 -14.81888,-2.630402 -3.13635,2.802326 -3.26578,3.2143 -3.26578,10.395012 0,7.884192 1.36688,10.795538 6,12.779504 2.43671,1.043434 7.26935,0.343461 9.3096,-1.348425 z m 71.05897,5.74609 c -3.7064,-2.013859 -4.09646,-3.459475 -4.63044,-17.161385 -0.46032,-11.811777 -0.54467,-12.188888 -2.85623,-12.769052 -3.24195,-0.813679 -3.19745,-4.316922 0.0653,-5.135807 2.03392,-0.510481 2.49829,-1.315798 2.75,-4.769052 C 422.48015,30.772316 422.69662,30.5 425.5,30.5 c 2.74858,0 3.0419,0.334409 3.5,3.990318 0.3777,3.0143 0.98919,4.063358 2.5,4.288934 5.34393,0.797895 6.5,1.355086 6.5,3.132811 C 438,44.049486 436.12793,45 431.91821,45 H 429 v 11.3 c 0,12.211049 0.55184,13.7 5.07756,13.7 1.47265,0 3.27816,0.723696 4.01225,1.608213 3.00399,3.619584 -5.73356,5.86364 -11.22124,2.881939 z M 480.25,75.337719 C 479.55385,75.056815 479,73.127805 479,70.984054 c 0,-2.97102 0.45632,-3.99411 2,-4.484054 3.91003,-1.240995 6,0.312688 6,4.460399 0,4.50177 -2.47075,6.104034 -6.75,4.37732 z m 16.5,-0.02705 C 495.14358,74.890872 495,72.849292 495,50.426676 V 26 h 2.89301 C 501.4545,26 502,27.283739 502,35.665121 c 0,3.57585 0.3375,6.327816 0.75,6.11548 8.87706,-4.569505 14.75673,-4.728416 18.97238,-0.512771 3.19864,3.198642 4.22495,8.120684 4.25376,20.400383 C 526.00482,73.889318 525.66465,75 521.89301,75 H 519 V 64.125 c 0,-5.98125 -0.28735,-12.311726 -0.63855,-14.067725 -1.27456,-6.372812 -8.25936,-7.661539 -13.78243,-2.542923 C 502.09566,49.81585 502,50.330165 502,61.380823 c 0,9.099685 -0.32543,11.801748 -1.57143,13.047748 -0.86428,0.864286 -1.65178,1.519228 -1.75,1.455428 -0.0982,-0.0638 -0.96607,-0.321797 -1.92857,-0.573325 z m 85.05949,-0.851478 C 580.10208,73.532207 578.89298,73.36414 578.50047,73.999233 578.16029,74.549655 576.55852,75 574.94098,75 H 572 V 50.5 26 h 2.89301 C 578.44969,26 579,27.286611 579,35.602111 v 6.438537 l 4.17861,-2.131767 c 4.72491,-2.410469 11.0119,-2.140612 15.27985,0.65586 9.1044,5.965432 8.5542,27.797799 -0.84497,33.529236 -3.76088,2.293313 -11.90596,2.48154 -15.804,0.365219 z m 13.1235,-6.976208 c 5.03111,-4.951355 3.501,-19.961234 -2.3045,-22.606399 -3.09289,-1.409215 -8.83885,-0.406607 -10.93331,1.907742 -3.30275,3.649499 -3.86789,13.099189 -1.1708,19.576871 1.02609,2.464387 6.34404,4.743552 9.47562,4.061054 1.375,-0.299669 3.59484,-1.622339 4.93299,-2.939268 z M 374.64436,72.80381 c -0.33938,-1.267095 -0.6232,-8.630302 -0.63071,-16.36268 -0.0104,-10.695284 0.33121,-14.523286 1.42778,-16 1.15413,-1.554224 1.80192,-1.720087 3.25,-0.832144 1.62961,0.99925 1.80857,2.780396 1.80857,18 V 74.5 l -2.6193,0.30381 c -2.02278,0.234621 -2.75982,-0.220858 -3.23634,-2 z m 15.83181,0.994686 c -0.28319,-0.737977 -0.39368,-11.682039 -0.24553,-24.320137 L 390.5,26.5 h 2.5 2.5 v 24 24 l -2.25447,0.320137 c -1.23996,0.176075 -2.48617,-0.283663 -2.76936,-1.021641 z m 15.1905,0.534837 C 405.3,73.966667 405,66.371767 405,57.455778 c 0,-13.571038 0.25792,-16.42494 1.58382,-17.525345 1.14833,-0.953023 2.04197,-1.02589 3.25,-0.265002 1.41068,0.888524 1.71014,3.333172 1.95283,15.942011 C 412.12407,73.138203 411.82271,75 408.64761,75 c -1.27285,0 -2.61428,-0.3 -2.98094,-0.666667 z M 30.25,66.325576 C 29.0125,65.46234 28,64.120767 28,63.344303 c 0,-0.776465 -1.575,-2.341026 -3.5,-3.476804 -1.925,-1.135778 -3.5,-2.710778 -3.5,-3.5 0,-0.789222 -1.575,-2.364222 -3.5,-3.5 C 15.575,51.731721 14,50.225307 14,49.519913 14,48.814519 12.425,47.036067 10.5,45.567798 3.5423624,40.260949 4.6857591,39.933608 29.141797,40.230868 50.111704,40.485756 51.34067,40.605853 52.361979,42.5 c 4.488927,8.325285 6.650847,10.445026 17.479327,17.138311 1.146921,0.708933 -1.515435,4.801851 -4.180592,6.426948 C 62.89933,67.74903 60.604876,67.986369 47.5,67.94381 35.551925,67.905008 32.042211,67.575759 30.25,66.325576 Z M 90.897883,65.715638 C 86.008875,62.428808 85.938941,59.584225 90.687304,57.150294 95.773801,54.54304 101.31154,48.853142 103.51215,43.973059 L 105.30375,40 h 22.34812 C 145.70567,40 150,40.258452 150,41.345012 150,42.956775 146.827,46 145.14651,46 c -0.65781,0 -1.63081,1.143595 -2.16222,2.541322 -0.53142,1.397727 -2.29567,3.304327 -3.92057,4.23689 -1.62489,0.932562 -3.16083,2.485145 -3.4132,3.450183 -0.25236,0.965038 -1.84912,2.545938 -3.54836,3.51311 -1.69923,0.967172 -3.09236,2.288334 -3.09584,2.935915 -0.003,0.647581 -1.19201,2.110081 -2.64118,3.25 C 123.97062,67.810954 122.38788,68 109.01302,68 95.343391,68 94.053893,67.837391 90.897883,65.715638 Z M 68.020935,53.366755 C 66.342553,52.661049 64.70966,51.406961 64.392284,50.579893 64.074909,49.752826 63.03692,48.829106 62.085642,48.527182 59.181545,47.605457 55.713555,40.185208 55.380422,34.180428 54.869596,24.972705 59.847096,16.677692 68.5,12.316624 c 1.610321,-0.811603 13.584518,-1.095292 19.223229,-0.455432 2.059665,0.233724 10.097368,8.240972 11.733661,11.689203 2.2097,4.656594 2.00828,14.635731 -0.388335,19.239443 C 96.982757,46.7965 92.988816,50.863251 89,53.041944 85.740026,54.822543 71.989558,55.035436 68.020935,53.366755 Z M 90.5,33 C 90.839919,32.45 90.641476,32 90.059017,32 89.476558,32 89,32.45 89,33 c 0,0.55 0.198442,1 0.440983,1 0.242541,0 0.719098,-0.45 1.059017,-1 z m 283.90809,-2.510159 c -0.80282,-3.198718 0.55411,-4.77337 3.72657,-4.324506 1.88712,0.267003 2.36534,0.941203 2.36534,3.334665 0,2.519851 -0.43455,3.050105 -2.71512,3.313057 -2.21927,0.255885 -2.83596,-0.168392 -3.37679,-2.323216 z m 31.00165,1.135543 C 404.2113,28.502299 405.4239,26.5 408.5137,26.5 c 2.65144,0 2.9863,0.336391 2.9863,3 0,2.530878 -0.43092,3.049566 -2.75569,3.316971 -1.75858,0.20228 -2.96514,-0.228875 -3.33457,-1.191587 z"
       id="path20"
       inkscape:connector-curvature="0" />
    <path
       style="fill:#7986ec"
       d="M 27.20573,101.74789 C 26.474313,100.86659 26.879197,96.942659 28.572909,88.497889 31.799925,72.408142 32.008649,72 37.009946,72 c 2.852794,0 4.241341,0.491268 4.689497,1.659143 0.866319,2.257593 -4.422065,27.546087 -5.965515,28.526457 -1.931905,1.22712 -7.378519,0.94757 -8.528198,-0.43771 z m 15.949993,0.36951 c -1.048755,-0.66467 0.270271,-4.013829 6,-15.234684 L 56.5,72.5 l 4,-0.260911 c 2.2,-0.143502 4.571844,0.113831 5.270764,0.571849 0.69892,0.458019 2.48824,7.010943 3.976267,14.562054 2.349802,11.924257 2.511413,13.852028 1.229236,14.662838 C 68.492191,103.60668 64.40725,103.10749 62.5,101 c -1.0894,-1.203773 -3.079967,-2 -5,-2 -1.920033,0 -3.9106,0.796227 -5,2 -1.87641,2.07341 -6.889898,2.67293 -9.344277,1.1174 z M 59.968197,89.25 C 59.938063,86.644365 59.861,86.599603 58.50023,88.397322 57.053881,90.308099 57.316301,92 59.059017,92 c 0.517541,0 0.926671,-1.2375 0.90918,-2.75 z m 21.369933,12.18877 c -0.560794,-1.461406 -0.03487,-8.125804 1.311327,-16.616738 0.567698,-3.580676 0.494075,-3.686487 -2.783167,-4 -2.945259,-0.281755 -3.403945,-0.707903 -3.667355,-3.407207 -0.480278,-4.921657 1.165715,-5.513993 14.442894,-5.197496 L 102.5,72.5 l 0.32226,2.810472 C 103.23873,78.942566 101.47197,81 97.936572,81 c -1.550196,0 -3.058108,0.387632 -3.350915,0.861404 -0.292807,0.473772 -1.210518,5.054247 -2.039359,10.178833 -0.82884,5.124587 -2.078328,9.680063 -2.77664,10.123283 -2.246716,1.42599 -7.789022,0.94959 -8.431528,-0.72475 z m 19.06679,0.17406 c -0.570232,-1.48601 12.08342,-27.619017 13.96802,-28.847517 1.83894,-1.198734 8.30015,-0.865703 9.4035,0.484687 0.56174,0.6875 2.2315,7.273931 3.71058,14.636513 2.20194,10.960812 2.44677,13.540207 1.35111,14.234687 -2.38805,1.51366 -6.80938,0.93524 -8.57016,-1.1212 -0.97409,-1.13765 -2.94994,-2 -4.58248,-2 -1.57852,0 -4.0142,0.9 -5.41262,2 -2.93459,2.30835 -9.07108,2.68944 -9.86795,0.61283 z M 118,88.940983 C 118,87.873442 117.59814,87 117.10699,87 c -1.17436,0 -2.27181,2.924296 -1.54114,4.106554 C 116.43795,92.517639 118,91.127942 118,88.940983 Z M 230.6838,75.551188 c -4.98311,-1.777201 -7.55201,-4.149066 -9.80307,-9.051188 -3.75342,-8.173793 -1.50923,-19.269033 5.00641,-24.751579 8.13074,-6.841572 21.957,-3.918674 26.47213,5.596262 1.8728,3.946628 2.19236,14.061969 0.5794,18.340217 -1.57846,4.186719 -6.87351,9.202294 -10.89431,10.3193 -4.61722,1.282694 -6.73002,1.198444 -11.36056,-0.453012 z m 12.81697,-8.146522 c 4.36417,-4.709019 4.18417,-16.664857 -0.31217,-20.733985 -4.67954,-4.234928 -12.78101,-2.483127 -15.1681,3.279839 -1.99075,4.806081 -0.90605,14.477955 1.96663,17.535784 3.37779,3.595488 10.14368,3.554614 13.51364,-0.08164 z m -81.46559,6.661075 c -1.09927,-2.054019 -1.4666,-30.777912 -0.42819,-33.483954 0.80041,-2.085837 5.98556,-2.085978 6.78595,-1.84e-4 0.53448,1.392839 1.0089,1.333164 3.97502,-0.5 4.46331,-2.758474 9.50878,-2.654473 13.84077,0.285298 l 3.48782,2.366901 3.90173,-2.421073 c 3.10526,-1.926859 4.88837,-2.336277 8.73517,-2.005675 8.68034,0.746008 10.60276,4.902129 10.64269,23.008687 C 213.00106,72.613321 212.12204,76 209.16482,76 205.53926,76 205,73.993044 205,60.5 c 0,-8.855556 -0.3888,-13.488804 -1.2,-14.3 -2.09982,-2.099816 -7.66609,-1.42482 -10.34545,1.254545 C 191.12477,49.784321 191,50.511223 191,61.754545 191,73.949083 190.40039,76 186.83518,76 183.81377,76 183,72.555343 183,59.765741 c 0,-13.540996 -0.46051,-14.785965 -5.45,-14.733938 -6.72088,0.07008 -8.55,3.857207 -8.55,17.702456 0,7.117798 -0.41392,11.279659 -1.2,12.065741 -1.80186,1.801862 -4.59814,1.445703 -5.76482,-0.734259 z M 271.83353,74.75 c -1.70519,-1.376285 -13.84189,-31.198897 -13.83675,-34 0.002,-1.274046 0.81287,-1.75 2.98017,-1.75 3.79013,0 4.91911,1.737327 9.58509,14.75 2.02146,5.6375 4.03962,10.25 4.48482,10.25 0.75785,0 1.68972,-2.202722 7.08615,-16.75 2.72634,-7.349467 3.48927,-8.25 6.98943,-8.25 2.15085,0 2.87756,0.475333 2.87756,1.882187 0,2.699939 -12.70594,33.313905 -14.22723,34.279412 -1.85375,1.1765 -4.17054,1.015943 -5.93924,-0.411599 z M 480.25,75.337719 C 479.55385,75.056815 479,73.127805 479,70.984054 c 0,-2.97102 0.45632,-3.99411 2,-4.484054 3.91003,-1.240995 6,0.312688 6,4.460399 0,4.50177 -2.47075,6.104034 -6.75,4.37732 z m 60.84015,-0.180463 c -1.32542,-0.387675 -3.35042,-1.963159 -4.5,-3.501075 C 534.69968,69.127103 534.5,67.505294 534.5,54.679984 c 0,-13.791507 0.0595,-14.188456 2.17142,-14.489237 2.12271,-0.302318 2.17879,-0.0074 2.5,13.148246 0.28186,11.544202 0.59942,13.756314 2.23357,15.559254 4.16762,4.598091 13.64574,1.182227 15.52807,-5.596229 0.58068,-2.09111 1.0583,-8.189518 1.06136,-13.552018 0.005,-8.897686 0.17106,-9.75 1.89859,-9.75 1.04116,0 2.16616,0.711804 2.5,1.581787 C 562.72686,42.451771 563,49.82167 563,57.959343 c 0,12.398641 -0.26159,15.012869 -1.61462,16.135779 -1.38366,1.148342 -1.88115,1.010846 -3.47807,-0.961262 l -1.86346,-2.301274 -2.80569,1.997828 c -3.23801,2.305667 -8.66591,3.345332 -12.14801,2.326842 z m 44.85145,-0.09517 c -1.40712,-0.432648 -3.58205,-1.334477 -4.83319,-2.004063 -1.88718,-1.009991 -2.59065,-0.931572 -4.12858,0.460236 -1.01959,0.922716 -2.33216,1.382025 -2.91682,1.020687 C 573.3611,74.105139 573,65.895537 573,50.371432 V 26.860898 l 2.25,0.319551 c 2.08226,0.295728 2.27177,0.897319 2.54206,8.069551 0.16064,4.2625 0.71226,7.75 1.22583,7.75 0.51358,0 2.40715,-0.898318 4.20794,-1.996262 6.63844,-4.047457 15.27739,-1.322749 19.07493,6.016195 2.55887,4.945131 2.04706,17.697838 -0.8669,21.600772 -4.17814,5.596167 -10.15666,8.081921 -15.49226,6.441379 z m 9.55917,-6.657418 c 4.07912,-4.401439 4.60438,-15.54286 0.99264,-21.055071 -3.32898,-5.080664 -11.16258,-5.459549 -15.58348,-0.753721 -2.15664,2.295638 -2.40993,3.459261 -2.40993,11.071274 0,8.080168 0.14047,8.626846 2.80576,10.919436 4.03747,3.472878 10.88924,3.385068 14.19501,-0.181918 z m -98.87548,5.798065 c -0.38773,-0.627363 -0.98877,-40.440058 -0.69478,-46.022282 0.0412,-0.783149 0.98412,-1.189652 2.31949,-1 2.08226,0.295728 2.27177,0.897319 2.54206,8.069551 0.16064,4.2625 0.58106,7.75 0.93428,7.75 0.35322,0 2.6152,-0.955105 5.02662,-2.122456 3.16187,-1.530634 5.50226,-1.972522 8.39334,-1.584746 7.96524,1.068362 9.8396,5.319249 9.84812,22.334757 0.004,8.812021 -0.31537,11.393924 -1.5368,12.407619 -2.80987,2.331982 -3.71267,-0.356653 -3.59618,-10.709733 0.13875,-12.330486 -0.69157,-16.10947 -4.09844,-18.653068 -2.39091,-1.785072 -3.13812,-1.876561 -6.67402,-0.817178 C 502.19835,45.919677 501,48.524043 501,61.434859 501,68.785524 500.59003,73.00997 499.8,73.8 c -1.39274,1.392736 -2.47778,1.530381 -3.17471,0.402731 z M 30.25,66.325576 C 29.0125,65.46234 28,64.120767 28,63.344303 c 0,-0.776465 -1.575,-2.341026 -3.5,-3.476804 -1.925,-1.135778 -3.5,-2.710778 -3.5,-3.5 0,-0.789222 -1.575,-2.364222 -3.5,-3.5 C 15.575,51.731721 14,50.225307 14,49.519913 14,48.814519 12.425,47.036067 10.5,45.567798 3.5423624,40.260949 4.6857591,39.933608 29.141797,40.230868 50.111704,40.485756 51.34067,40.605853 52.361979,42.5 c 4.488927,8.325285 6.650847,10.445026 17.479327,17.138311 1.146921,0.708933 -1.515435,4.801851 -4.180592,6.426948 C 62.89933,67.74903 60.604876,67.986369 47.5,67.94381 35.551925,67.905008 32.042211,67.575759 30.25,66.325576 Z M 90.897883,65.715638 C 86.008875,62.428808 85.938941,59.584225 90.687304,57.150294 95.773801,54.54304 101.31154,48.853142 103.51215,43.973059 L 105.30375,40 h 22.34812 C 145.70567,40 150,40.258452 150,41.345012 150,42.956775 146.827,46 145.14651,46 c -0.65781,0 -1.63081,1.143595 -2.16222,2.541322 -0.53142,1.397727 -2.29567,3.304327 -3.92057,4.23689 -1.62489,0.932562 -3.16083,2.485145 -3.4132,3.450183 -0.25236,0.965038 -1.84912,2.545938 -3.54836,3.51311 -1.69923,0.967172 -3.09236,2.288334 -3.09584,2.935915 -0.003,0.647581 -1.19201,2.110081 -2.64118,3.25 C 123.97062,67.810954 122.38788,68 109.01302,68 95.343391,68 94.053893,67.837391 90.897883,65.715638 Z M 68.020935,53.366755 C 66.342553,52.661049 64.70966,51.406961 64.392284,50.579893 64.074909,49.752826 63.03692,48.829106 62.085642,48.527182 59.181545,47.605457 55.713555,40.185208 55.380422,34.180428 54.869596,24.972705 59.847096,16.677692 68.5,12.316624 c 1.610321,-0.811603 13.584518,-1.095292 19.223229,-0.455432 2.059665,0.233724 10.097368,8.240972 11.733661,11.689203 2.2097,4.656594 2.00828,14.635731 -0.388335,19.239443 C 96.982757,46.7965 92.988816,50.863251 89,53.041944 85.740026,54.822543 71.989558,55.035436 68.020935,53.366755 Z M 90.5,33 C 90.839919,32.45 90.641476,32 90.059017,32 89.476558,32 89,32.45 89,33 c 0,0.55 0.198442,1 0.440983,1 0.242541,0 0.719098,-0.45 1.059017,-1 z"
       id="path18"
       inkscape:connector-curvature="0" />
    <path
       style="fill:#e75746"
       d="M 28,99.580002 C 28,98.799004 29.125,92.956646 30.5,86.596986 31.875,80.237326 33,74.801325 33,74.516984 33,74.232643 34.8,74 37,74 c 2.2,0 4,0.163117 4,0.362482 0,1.375857 -5.09036,24.974706 -5.546251,25.712358 C 34.496109,101.62433 28,101.19307 28,99.580002 Z m 16,0.905718 c 0,-0.28285 2.940799,-6.382955 6.535108,-13.555782 l 6.535108,-13.041503 4.202141,0.305783 4.20214,0.305782 2.682235,12.475771 c 1.475228,6.861674 2.466909,12.824174 2.203734,13.249999 -0.866949,1.40275 -6.402317,0.82874 -6.99884,-0.72577 C 62.961284,98.456724 61.333469,98 58.015456,98 54.994903,98 52.78822,98.550253 52,99.5 c -1.12962,1.36111 -8,2.20764 -8,0.98572 z M 61.830006,90.670905 C 62.367462,87.83876 61.108069,84 59.641463,84 58.121356,84 56,88.143998 56,91.113475 c 0,1.611703 0.553439,1.955491 2.741449,1.702947 1.704835,-0.196774 2.8727,-1.008051 3.088557,-2.145517 z M 82.021598,100.25 c 0.01188,-0.4125 0.637224,-4.8 1.389656,-9.75 C 84.934904,80.476405 84.481237,79 79.877555,79 76.942738,79 76.532366,78.382208 77.606989,75.581787 78.111079,74.268148 80.135342,74 89.547972,74 c 6.233697,0 11.587008,0.409391 11.896258,0.909758 1.12272,1.816601 -0.7057,4.090517 -3.301219,4.105555 -4.521047,0.02619 -5.375918,1.360178 -6.726799,10.496848 -0.708394,4.791223 -1.527717,9.336032 -1.820716,10.099577 -0.550088,1.433502 -7.613942,2.028782 -7.573898,0.638262 z m 20.019262,-0.5 c 0.0225,-0.6875 2.83497,-6.65 6.25,-13.25 l 6.20914,-12 4.21692,-0.305882 c 3.70469,-0.268725 4.28089,-0.02578 4.74348,2 C 126.04803,87.525771 128,97.327447 128,98.989413 128,100.53772 127.33838,101 125.12244,101 123.53979,101 121.68469,100.325 121,99.5 120.25034,98.59672 118.06237,98 115.5,98 c -2.56237,0 -4.75034,0.59672 -5.5,1.5 -1.52282,1.83488 -8.01762,2.03889 -7.95914,0.25 z m 17.3626,-7.593796 C 120.4211,90.509629 118.75676,84 117.31813,84 c -1.60271,0 -4.70025,6.572705 -3.79093,8.044018 0.72991,1.181007 5.16338,1.265648 5.87626,0.112186 z M 541.09015,75.157256 c -1.32542,-0.387675 -3.35042,-1.963159 -4.5,-3.501075 C 534.69968,69.127103 534.5,67.505294 534.5,54.679984 c 0,-13.791507 0.0595,-14.188456 2.17142,-14.489237 2.12271,-0.302318 2.17879,-0.0074 2.5,13.148246 0.28186,11.544202 0.59942,13.756314 2.23357,15.559254 4.16762,4.598091 13.64574,1.182227 15.52807,-5.596229 0.58068,-2.09111 1.0583,-8.189518 1.06136,-13.552018 0.005,-8.897686 0.17106,-9.75 1.89859,-9.75 1.04116,0 2.16616,0.711804 2.5,1.581787 C 562.72686,42.451771 563,49.82167 563,57.959343 c 0,12.398641 -0.26159,15.012869 -1.61462,16.135779 -1.38366,1.148342 -1.88115,1.010846 -3.47807,-0.961262 l -1.86346,-2.301274 -2.80569,1.997828 c -3.23801,2.305667 -8.66591,3.345332 -12.14801,2.326842 z m 44.85145,-0.09517 c -1.40712,-0.432648 -3.58205,-1.334477 -4.83319,-2.004063 -1.88718,-1.009991 -2.59065,-0.931572 -4.12858,0.460236 -1.01959,0.922716 -2.33216,1.382025 -2.91682,1.020687 C 573.3611,74.105139 573,65.895537 573,50.371432 V 26.860898 l 2.25,0.319551 c 2.08226,0.295728 2.27177,0.897319 2.54206,8.069551 0.16064,4.2625 0.71226,7.75 1.22583,7.75 0.51358,0 2.40715,-0.898318 4.20794,-1.996262 6.63844,-4.047457 15.27739,-1.322749 19.07493,6.016195 2.55887,4.945131 2.04706,17.697838 -0.8669,21.600772 -4.17814,5.596167 -10.15666,8.081921 -15.49226,6.441379 z m 9.55917,-6.657418 c 4.07912,-4.401439 4.60438,-15.54286 0.99264,-21.055071 -3.32898,-5.080664 -11.16258,-5.459549 -15.58348,-0.753721 -2.15664,2.295638 -2.40993,3.459261 -2.40993,11.071274 0,8.080168 0.14047,8.626846 2.80576,10.919436 4.03747,3.472878 10.88924,3.385068 14.19501,-0.181918 z m -367.25991,4.600736 c -5.28382,-3.221584 -7.23282,-7.424772 -7.23712,-15.607519 -0.004,-7.737487 1.82269,-11.733815 7.17608,-15.698793 3.6119,-2.675141 12.38158,-2.710807 16.98319,-0.06907 8.51352,4.887534 10.41852,20.474023 3.44847,28.214993 -4.91579,5.459492 -14.22978,6.904505 -20.37062,3.160389 z m 13.88758,-2.57182 C 245.88555,68.490703 248,63.646727 248,56.982459 248,48.024909 243.8149,43 236.35442,43 c -5.64779,0 -9.95446,4.150043 -10.90845,10.511737 -1.98508,13.237459 6.72404,22.071548 16.68247,16.921845 z m 254.49685,3.769149 c -0.38773,-0.627363 -0.98877,-40.440058 -0.69478,-46.022282 0.0412,-0.783149 0.98412,-1.189652 2.31949,-1 2.08226,0.295728 2.27177,0.897319 2.54206,8.069551 0.16064,4.2625 0.58106,7.75 0.93428,7.75 0.35322,0 2.6152,-0.955105 5.02662,-2.122456 3.16187,-1.530634 5.50226,-1.972522 8.39334,-1.584746 7.96524,1.068362 9.8396,5.319249 9.84812,22.334757 0.004,8.812021 -0.31537,11.393924 -1.5368,12.407619 -2.80987,2.331982 -3.71267,-0.356653 -3.59618,-10.709733 0.13875,-12.330486 -0.69157,-16.10947 -4.09844,-18.653068 -2.39091,-1.785072 -3.13812,-1.876561 -6.67402,-0.817178 C 502.19835,45.919677 501,48.524043 501,61.434859 501,68.785524 500.59003,73.00997 499.8,73.8 c -1.39274,1.392736 -2.47778,1.530381 -3.17471,0.402731 z M 163,57.559017 c 0,-17.290092 0.6867,-19.951557 4.01079,-15.544718 l 1.73635,2.30194 2.87643,-2.012292 c 5.65287,-3.95463 11.52179,-3.671789 15.64502,0.75398 1.76994,1.899803 1.84982,1.892498 5.51369,-0.504229 2.04474,-1.337579 4.89131,-2.717095 6.32569,-3.065592 3.7212,-0.904095 9.68984,1.849897 10.89839,5.028625 C 210.55286,45.954139 211,53.175904 211,60.5651 211,73.152851 210.87877,74 209.07748,74 c -1.78474,0 -1.94599,-0.960216 -2.25,-13.398247 -0.28617,-11.708137 -0.57907,-13.675843 -2.32195,-15.598878 -2.66299,-2.938253 -8.72861,-2.233169 -12.40811,1.442353 -2.47528,2.472602 -2.61301,3.181469 -2.92898,15.074691 C 188.86236,73.041266 188.68951,74 186.91844,74 185.1266,74 185,73.151026 185,61.134859 c 0,-11.501121 -0.21974,-13.144501 -2.07258,-15.5 -2.35115,-2.989007 -5.59136,-3.377122 -9.84223,-1.17891 C 168.45643,46.849572 167,51.383915 167,63.401129 167,73.333333 166.8742,74 165,74 c -1.9189,0 -2,-0.666667 -2,-16.440983 z M 265.68546,57.75 c -4.13214,-10.298135 -6.17423,-16.608036 -5.57537,-17.227524 2.05822,-2.129149 4.54471,1.636856 8.9681,13.582962 2.85102,7.699664 5.11506,12.394562 5.97707,12.394562 0.86003,0 3.16196,-4.744323 6.05434,-12.478164 4.5338,-12.122753 6.77705,-15.571652 8.78031,-13.49936 0.59886,0.619488 -1.44323,6.929389 -5.57537,17.227524 C 278.06816,73.317257 277.67681,74 275,74 c -2.67681,0 -3.06816,-0.682743 -9.31454,-16.25 z m 214.70308,14.820137 c -0.99567,-2.594671 0.39988,-4.739185 2.85699,-4.390274 C 484.89826,68.414553 485.5,69.167272 485.5,71 c 0,1.832728 -0.60174,2.585447 -2.25447,2.820137 -1.35228,0.192025 -2.49559,-0.308199 -2.85699,-1.25 z M 32.75,65.88518 c -6.332708,-2.422196 -1.196026,-4.141023 11.05389,-3.698832 4.428833,0.15987 8.40922,-0.06612 8.845306,-0.502211 C 54.44348,59.889854 49.829462,59.029782 38.331787,59.015313 25.353178,58.99898 23,58.5965 23,56.393011 23,55.273311 25.566971,55 36.083333,55 46.104826,55 49.069476,54.707467 48.751369,53.75 48.450974,52.845846 44.485277,52.4327 34.418035,52.256755 18.666732,51.981471 16,51.579564 16,49.480948 16,48.241107 18.360684,48 30.5,48 42.722222,48 45,47.764368 45,46.5 45,45.22619 42.466667,45 28.2,45 12.015137,45 9,44.497477 9,41.8 9,41.36 18.217419,41 29.483154,41 h 20.483154 l 2.487638,4.909116 c 2.338168,4.614152 8.215503,10.357914 13.296054,12.993875 3.004206,1.558684 2.837333,3.469858 -0.5,5.726428 C 62.956004,66.180526 60.261436,66.526015 49,66.712942 41.373793,66.839529 34.303487,66.479373 32.75,65.88518 Z m 61.270563,0.03666 C 91.17465,64.742882 88,62.076582 88,60.865336 c 0,-0.453578 1.788049,-1.736883 3.973441,-2.851787 5.004793,-2.553255 9.929009,-7.475673 12.574529,-12.569934 L 106.59595,41.5 127.29797,41.229712 C 146.88466,40.973985 150.28352,41.404043 146.75,43.690983 146.0625,44.135942 137.88654,44.725 128.5812,45 116.3013,45.362907 111.54873,45.842733 111.24786,46.75 110.92848,47.713073 114.29558,48 125.91667,48 134.2125,48 141,48.3949 141,48.877555 c 0,2.418649 -3.55,3.085019 -17.82231,3.345429 -18.38449,0.335439 -20.83668,2.150577 -3.43143,2.539978 13.62004,0.304717 15.02958,0.597277 13.24392,2.748871 -0.97281,1.172158 -3.9165,1.491419 -13.86262,1.50348 -11.75716,0.01426 -16.5856,0.859982 -14.84535,2.600235 0.39837,0.398362 5.11033,0.642307 10.47104,0.542101 10.62987,-0.198701 13.46729,0.58253 10.64398,2.930622 -2.09417,1.741686 -27.551948,2.418011 -31.376667,0.833569 z M 68.25,51.968838 C 65.838273,50.999442 65.339717,49.526111 67.063013,48.461056 68.160265,47.782917 72,50.655868 72,52.154988 c 0,1.031744 -0.821495,0.990965 -3.75,-0.18615 z M 85,52.19113 c 0,-2.174925 2.807201,-4.478596 4.605392,-3.779318 1.79269,0.697139 1.767613,0.840363 -0.466176,2.66248 C 86.654889,53.100775 85,53.547295 85,52.19113 Z M 74.2,49.8 c -1.791445,-1.791445 -1.455947,-3.99543 0.55,-3.613108 0.9625,0.183446 1.893798,1.341442 2.069551,2.573324 C 77.170791,51.222111 76.062161,51.662161 74.2,49.8 Z M 80,48.5 c 0,-1.833333 0.533333,-2.5 2,-2.5 2.227596,0 2.640188,1.959812 0.8,3.8 C 80.935879,51.664121 80,51.229605 80,48.5 Z M 59.089206,42.684276 c -3.375748,-6.973366 -2.2929,-9.705168 3.291427,-8.303591 2.951112,0.740682 5.506041,8.846011 3.536471,11.219198 -2.176667,2.622723 -4.660223,1.56221 -6.827898,-2.915607 z m 31.997746,2.920495 c -1.594946,-1.921793 -0.189489,-9.506728 2.019781,-10.900299 0.871043,-0.54944 2.822232,-0.688133 4.335976,-0.308207 2.397873,0.601828 2.666381,1.039268 2.085289,3.397254 -0.987831,4.008478 -3.920687,8.658425 -5.674101,8.996101 -0.8458,0.162887 -2.090926,-0.370296 -2.766945,-1.184849 z M 69.175762,39.75 C 68.145368,35.950708 69.246817,34 72.422445,34 75.174627,34 77,35.794447 77,38.5 77,41.234933 75.167701,43 72.328592,43 70.613449,43 69.841325,42.204079 69.175762,39.75 Z M 81.25,42.337719 C 80.5625,42.060307 80,40.326158 80,38.484054 80,36.013034 80.524446,34.968323 82,34.5 c 2.999131,-0.951887 6,0.365059 6,2.633129 0,4.592224 -2.840258,6.782206 -6.75,5.20459 z M 57,29.315724 C 57,26.114986 61.115409,19 62.966762,19 c 3.295982,0 4.228947,2.33713 2.954072,7.400117 C 64.793395,30.877583 64.659277,31 60.881285,31 57.909188,31 57,30.60546 57,29.315724 Z m 11.847412,1.198355 c -0.319608,-0.319608 -0.287519,-2.028524 0.07131,-3.797592 0.504838,-2.488914 1.229234,-3.284474 3.202443,-3.517045 3.07199,-0.362079 5.152057,1.846143 4.7056,4.995516 -0.260792,1.839662 -1.040617,2.365125 -3.862505,2.602634 -1.944658,0.163675 -3.797239,0.03609 -4.116847,-0.283513 z M 80.189635,27.25 c 0.280378,-3.387676 0.611756,-3.779335 3.429713,-4.053614 2.541209,-0.247342 3.233703,0.123337 3.736346,2 C 88.703398,30.228163 88.249088,31 83.939635,31 h -4.060366 z m 11.466754,3 c -0.253905,-0.4125 -0.774895,-2.843073 -1.157756,-5.401274 -0.622398,-4.158739 -0.474818,-4.721509 1.39368,-5.314547 1.149384,-0.364801 2.590674,-0.353711 3.202865,0.02464 1.255598,0.776002 4.849218,8.276364 4.88286,10.191177 0.0239,1.360336 -7.513336,1.813205 -8.321649,0.5 z M 73,19.155112 C 73,16.999712 74.288126,15 75.67654,15 77.777689,15 76.931177,19.397389 74.75,19.813108 73.7875,19.996555 73,19.700457 73,19.155112 Z M 80,17.5 c 0,-2.729605 0.935879,-3.164121 2.8,-1.3 1.840188,1.840188 1.427596,3.8 -0.8,3.8 -1.466667,0 -2,-0.666667 -2,-2.5 z M 66.406242,16.848296 C 65.639968,15.608438 68.544335,13 70.69113,13 c 1.843712,0 1.625603,1.403386 -0.519871,3.345012 -2.164159,1.958538 -2.812092,2.045149 -3.765017,0.503284 z m 19.215489,-1.302855 c -1.830579,-2.793816 -1.066701,-3.160936 2.857111,-1.373127 2.717208,1.238042 2.890837,3.126744 0.333076,3.623127 -0.837292,0.162493 -2.272876,-0.850007 -3.190187,-2.25 z"
       id="path16"
       inkscape:connector-curvature="0" />
    <path
       style="fill:#3849ed"
       d="M 28,99.580002 C 28,98.799004 29.125,92.956646 30.5,86.596986 31.875,80.237326 33,74.801325 33,74.516984 33,74.232643 34.8,74 37,74 c 2.2,0 4,0.163117 4,0.362482 0,1.375857 -5.09036,24.974706 -5.546251,25.712358 C 34.496109,101.62433 28,101.19307 28,99.580002 Z m 16,0.905718 c 0,-0.28285 2.940799,-6.382955 6.535108,-13.555782 l 6.535108,-13.041503 4.202141,0.305783 4.20214,0.305782 2.682235,12.475771 c 1.475228,6.861674 2.466909,12.824174 2.203734,13.249999 -0.866949,1.40275 -6.402317,0.82874 -6.99884,-0.72577 C 62.961284,98.456724 61.333469,98 58.015456,98 54.994903,98 52.78822,98.550253 52,99.5 c -1.12962,1.36111 -8,2.20764 -8,0.98572 z M 61.830006,90.670905 C 62.367462,87.83876 61.108069,84 59.641463,84 58.121356,84 56,88.143998 56,91.113475 c 0,1.611703 0.553439,1.955491 2.741449,1.702947 1.704835,-0.196774 2.8727,-1.008051 3.088557,-2.145517 z M 82.021598,100.25 c 0.01188,-0.4125 0.637224,-4.8 1.389656,-9.75 C 84.934904,80.476405 84.481237,79 79.877555,79 76.942738,79 76.532366,78.382208 77.606989,75.581787 78.111079,74.268148 80.135342,74 89.547972,74 c 6.233697,0 11.587008,0.409391 11.896258,0.909758 1.12272,1.816601 -0.7057,4.090517 -3.301219,4.105555 -4.521047,0.02619 -5.375918,1.360178 -6.726799,10.496848 -0.708394,4.791223 -1.527717,9.336032 -1.820716,10.099577 -0.550088,1.433502 -7.613942,2.028782 -7.573898,0.638262 z m 20.019262,-0.5 c 0.0225,-0.6875 2.83497,-6.65 6.25,-13.25 l 6.20914,-12 4.21692,-0.305882 c 3.70469,-0.268725 4.28089,-0.02578 4.74348,2 C 126.04803,87.525771 128,97.327447 128,98.989413 128,100.53772 127.33838,101 125.12244,101 123.53979,101 121.68469,100.325 121,99.5 120.25034,98.59672 118.06237,98 115.5,98 c -2.56237,0 -4.75034,0.59672 -5.5,1.5 -1.52282,1.83488 -8.01762,2.03889 -7.95914,0.25 z m 17.3626,-7.593796 C 120.4211,90.509629 118.75676,84 117.31813,84 c -1.60271,0 -4.70025,6.572705 -3.79093,8.044018 0.72991,1.181007 5.16338,1.265648 5.87626,0.112186 z m 108.8374,-19.150802 c -5.28382,-3.221584 -7.23282,-7.424772 -7.23712,-15.607519 -0.004,-7.737487 1.82269,-11.733815 7.17608,-15.698793 3.6119,-2.675141 12.38158,-2.710807 16.98319,-0.06907 8.51352,4.887534 10.41852,20.474023 3.44847,28.214993 -4.91579,5.459492 -14.22978,6.904505 -20.37062,3.160388 z m 13.88758,-2.57182 C 245.88555,68.490703 248,63.646727 248,56.982459 248,48.024909 243.8149,43 236.35442,43 c -5.64779,0 -9.95446,4.150043 -10.90845,10.511737 -1.98508,13.237459 6.72404,22.071548 16.68247,16.921845 z M 163,57.559017 c 0,-17.290092 0.6867,-19.951557 4.01079,-15.544718 l 1.73635,2.30194 2.87643,-2.012292 c 5.65287,-3.95463 11.52179,-3.671789 15.64502,0.75398 1.76994,1.899803 1.84982,1.892498 5.51369,-0.504229 2.04474,-1.337579 4.89131,-2.717095 6.32569,-3.065592 3.7212,-0.904095 9.68984,1.849897 10.89839,5.028625 C 210.55286,45.954139 211,53.175904 211,60.5651 211,73.152851 210.87877,74 209.07748,74 c -1.78474,0 -1.94599,-0.960216 -2.25,-13.398247 -0.28617,-11.708137 -0.57907,-13.675843 -2.32195,-15.598878 -2.66299,-2.938253 -8.72861,-2.233169 -12.40811,1.442353 -2.47528,2.472602 -2.61301,3.181469 -2.92898,15.074691 C 188.86236,73.041266 188.68951,74 186.91844,74 185.1266,74 185,73.151026 185,61.134859 c 0,-11.501121 -0.21974,-13.144501 -2.07258,-15.5 -2.35115,-2.989007 -5.59136,-3.377122 -9.84223,-1.17891 C 168.45643,46.849572 167,51.383915 167,63.401129 167,73.333333 166.8742,74 165,74 c -1.9189,0 -2,-0.666667 -2,-16.440983 z M 265.68546,57.75 c -4.13214,-10.298135 -6.17423,-16.608036 -5.57537,-17.227524 2.05822,-2.129149 4.54471,1.636856 8.9681,13.582962 2.85102,7.699664 5.11506,12.394562 5.97707,12.394562 0.86003,0 3.16196,-4.744323 6.05434,-12.478164 4.5338,-12.122753 6.77705,-15.571652 8.78031,-13.49936 0.59886,0.619488 -1.44323,6.929389 -5.57537,17.227524 C 278.06816,73.317257 277.67681,74 275,74 c -2.67681,0 -3.06816,-0.682743 -9.31454,-16.25 z m 214.70308,14.820137 c -0.99567,-2.594671 0.39988,-4.739185 2.85699,-4.390274 C 484.89826,68.414553 485.5,69.167272 485.5,71 c 0,1.832728 -0.60174,2.585447 -2.25447,2.820137 -1.35228,0.192025 -2.49559,-0.308199 -2.85699,-1.25 z M 32.75,65.88518 c -6.332708,-2.422196 -1.196026,-4.141023 11.05389,-3.698832 4.428833,0.15987 8.40922,-0.06612 8.845306,-0.502211 C 54.44348,59.889854 49.829462,59.029782 38.331787,59.015313 25.353178,58.99898 23,58.5965 23,56.393011 23,55.273311 25.566971,55 36.083333,55 46.104826,55 49.069476,54.707467 48.751369,53.75 48.450974,52.845846 44.485277,52.4327 34.418035,52.256755 18.666732,51.981471 16,51.579564 16,49.480948 16,48.241107 18.360684,48 30.5,48 42.722222,48 45,47.764368 45,46.5 45,45.22619 42.466667,45 28.2,45 12.015137,45 9,44.497477 9,41.8 9,41.36 18.217419,41 29.483154,41 h 20.483154 l 2.487638,4.909116 c 2.338168,4.614152 8.215503,10.357914 13.296054,12.993875 3.004206,1.558684 2.837333,3.469858 -0.5,5.726428 C 62.956004,66.180526 60.261436,66.526015 49,66.712942 41.373793,66.839529 34.303487,66.479373 32.75,65.88518 Z m 61.270563,0.03666 C 91.17465,64.742882 88,62.076582 88,60.865336 c 0,-0.453578 1.788049,-1.736883 3.973441,-2.851787 5.004793,-2.553255 9.929009,-7.475673 12.574529,-12.569934 L 106.59595,41.5 127.29797,41.229712 C 146.88466,40.973985 150.28352,41.404043 146.75,43.690983 146.0625,44.135942 137.88654,44.725 128.5812,45 116.3013,45.362907 111.54873,45.842733 111.24786,46.75 110.92848,47.713073 114.29558,48 125.91667,48 134.2125,48 141,48.3949 141,48.877555 c 0,2.418649 -3.55,3.085019 -17.82231,3.345429 -18.38449,0.335439 -20.83668,2.150577 -3.43143,2.539978 13.62004,0.304717 15.02958,0.597277 13.24392,2.748871 -0.97281,1.172158 -3.9165,1.491419 -13.86262,1.50348 -11.75716,0.01426 -16.5856,0.859982 -14.84535,2.600235 0.39837,0.398362 5.11033,0.642307 10.47104,0.542101 10.62987,-0.198701 13.46729,0.58253 10.64398,2.930622 -2.09417,1.741686 -27.551948,2.418011 -31.376667,0.833569 z M 68.25,51.968838 C 65.838273,50.999442 65.339717,49.526111 67.063013,48.461056 68.160265,47.782917 72,50.655868 72,52.154988 c 0,1.031744 -0.821495,0.990965 -3.75,-0.18615 z M 85,52.19113 c 0,-2.174925 2.807201,-4.478596 4.605392,-3.779318 1.79269,0.697139 1.767613,0.840363 -0.466176,2.66248 C 86.654889,53.100775 85,53.547295 85,52.19113 Z M 74.2,49.8 c -1.791445,-1.791445 -1.455947,-3.99543 0.55,-3.613108 0.9625,0.183446 1.893798,1.341442 2.069551,2.573324 C 77.170791,51.222111 76.062161,51.662161 74.2,49.8 Z M 80,48.5 c 0,-1.833333 0.533333,-2.5 2,-2.5 2.227596,0 2.640188,1.959812 0.8,3.8 C 80.935879,51.664121 80,51.229605 80,48.5 Z M 59.089206,42.684276 c -3.375748,-6.973366 -2.2929,-9.705168 3.291427,-8.303591 2.951112,0.740682 5.506041,8.846011 3.536471,11.219198 -2.176667,2.622723 -4.660223,1.56221 -6.827898,-2.915607 z m 31.997746,2.920495 c -1.594946,-1.921793 -0.189489,-9.506728 2.019781,-10.900299 0.871043,-0.54944 2.822232,-0.688133 4.335976,-0.308207 2.397873,0.601828 2.666381,1.039268 2.085289,3.397254 -0.987831,4.008478 -3.920687,8.658425 -5.674101,8.996101 -0.8458,0.162887 -2.090926,-0.370296 -2.766945,-1.184849 z M 69.175762,39.75 C 68.145368,35.950708 69.246817,34 72.422445,34 75.174627,34 77,35.794447 77,38.5 77,41.234933 75.167701,43 72.328592,43 70.613449,43 69.841325,42.204079 69.175762,39.75 Z M 81.25,42.337719 C 80.5625,42.060307 80,40.326158 80,38.484054 80,36.013034 80.524446,34.968323 82,34.5 c 2.999131,-0.951887 6,0.365059 6,2.633129 0,4.592224 -2.840258,6.782206 -6.75,5.20459 z M 57,29.315724 C 57,26.114986 61.115409,19 62.966762,19 c 3.295982,0 4.228947,2.33713 2.954072,7.400117 C 64.793395,30.877583 64.659277,31 60.881285,31 57.909188,31 57,30.60546 57,29.315724 Z m 11.847412,1.198355 c -0.319608,-0.319608 -0.287519,-2.028524 0.07131,-3.797592 0.504838,-2.488914 1.229234,-3.284474 3.202443,-3.517045 3.07199,-0.362079 5.152057,1.846143 4.7056,4.995516 -0.260792,1.839662 -1.040617,2.365125 -3.862505,2.602634 -1.944658,0.163675 -3.797239,0.03609 -4.116847,-0.283513 z M 80.189635,27.25 c 0.280378,-3.387676 0.611756,-3.779335 3.429713,-4.053614 2.541209,-0.247342 3.233703,0.123337 3.736346,2 C 88.703398,30.228163 88.249088,31 83.939635,31 h -4.060366 z m 11.466754,3 c -0.253905,-0.4125 -0.774895,-2.843073 -1.157756,-5.401274 -0.622398,-4.158739 -0.474818,-4.721509 1.39368,-5.314547 1.149384,-0.364801 2.590674,-0.353711 3.202865,0.02464 1.255598,0.776002 4.849218,8.276364 4.88286,10.191177 0.0239,1.360336 -7.513336,1.813205 -8.321649,0.5 z M 73,19.155112 C 73,16.999712 74.288126,15 75.67654,15 77.777689,15 76.931177,19.397389 74.75,19.813108 73.7875,19.996555 73,19.700457 73,19.155112 Z M 80,17.5 c 0,-2.729605 0.935879,-3.164121 2.8,-1.3 1.840188,1.840188 1.427596,3.8 -0.8,3.8 -1.466667,0 -2,-0.666667 -2,-2.5 z M 66.406242,16.848296 C 65.639968,15.608438 68.544335,13 70.69113,13 c 1.843712,0 1.625603,1.403386 -0.519871,3.345012 -2.164159,1.958538 -2.812092,2.045149 -3.765017,0.503284 z m 19.215489,-1.302855 c -1.830579,-2.793816 -1.066701,-3.160936 2.857111,-1.373127 2.717208,1.238042 2.890837,3.126744 0.333076,3.623127 -0.837292,0.162493 -2.272876,-0.850007 -3.190187,-2.25 z"
       id="path14"
       inkscape:connector-curvature="0" />
  </g>
</svg>
